# xmcd
#
# Track frame offsets: 
#        150
#        19811
#        40949
#        57789
#        77892
#        89179
#        116978
#        140258
#        163559
#        185265
#        206373
#        222657
#        243327
#
# Disc length: 3498 seconds
#
# Revision: 2
# Processed by: cddbd v1.5.2PL0 Copyright (c) Steve Scherf et al.
# Submitted via: ExactAudioCopyFreeDBPlugin 1.0
#
DISCID=ba0da80d
DTITLE=Various artist - Audiophile Bossa Nova
DYEAR=2008
DGENRE=New Age
TTITLE0=The Girl From Iapnema
TTITLE1=This Masquerade
TTITLE2=Autumn Leaves
TTITLE3=The Look Of Love
TTITLE4=Triste - Lydia Gray
TTITLE5=Desafinado
TTITLE6=La Mer ( Somewhere Beyond The Sea )
TTITLE7=Theme From A Summer Place
TTITLE8=You Are The Sunshine Of My Life
TTITLE9=Call Me
TTITLE10=Look For A Star
TTITLE11=One Note Samba
TTITLE12=Fly Me To The Moon
EXTD=YEAR: 2008
EXTT0=
EXTT1=
EXTT2=
EXTT3=
EXTT4=
EXTT5=
EXTT6=
EXTT7=
EXTT8=
EXTT9=
EXTT10=
EXTT11=
EXTT12=
PLAYORDER=
